<svg viewBox="0 0 240 240" xmlns="http://www.w3.org/2000/svg" role="img" aria-label="Kostka gitarowa na ciemnym tle">
    <path d="M120 28c-38 0-84 36-84 80 0 48 40 104 84 104s84-56 84-104c0-44-46-80-84-80z" fill="#E2E8F0"/>
    <g transform="translate(60,92)" opacity=".9">
        <rect x="0" y="0" width="120" height="36" rx="10" fill="#0B1220"/>
        <g stroke="#94A3B8" stroke-opacity=".6">
            <line x1="20" y1="0" x2="20" y2="36"/>
            <line x1="40" y1="0" x2="40" y2="36"/>
            <line x1="60" y1="0" x2="60" y2="36"/>
            <line x1="80" y1="0" x2="80" y2="36"/>
            <line x1="100" y1="0" x2="100" y2="36"/>
        </g>
        <circle cx="20" cy="10" r="5" fill="#41B883"/>
        <circle cx="60" cy="26" r="5" fill="#10B981"/>
        <circle cx="100" cy="10" r="5" fill="#22D3EE"/>
    </g>
</svg>